<svg width="36" height="25" viewBox="0 0 36 25" fill="none" xmlns="http://www.w3.org/2000/svg">
<g id="319">
<g id="New Icons">
<g id="Card Brands">
<g id="Color">
<g id="Visa">
<path id="Container" d="M32.2333 1.04688H3.78275C2.17118 1.04688 0.864746 2.35331 0.864746 3.96488V20.7434C0.864746 22.355 2.17118 23.6614 3.78275 23.6614H32.2333C33.8448 23.6614 35.1513 22.355 35.1513 20.7434V3.96488C35.1513 2.35331 33.8448 1.04688 32.2333 1.04688Z" fill="white" stroke="black" stroke-opacity="0.2" stroke-width="0.729501"/>
<path id="Shape" d="M4.56729 9.31122C3.80402 8.89258 2.93292 8.55589 1.95898 8.32224L1.99984 8.14029H5.99309C6.53436 8.15926 6.97356 8.32211 7.11648 8.89726L7.98432 13.0348L8.25018 14.281L10.6808 8.14029H13.3053L9.4041 17.136H6.77948L4.56729 9.31122ZM15.2359 17.1455H12.7539L14.3063 8.14029H16.7881L15.2359 17.1455ZM24.2332 8.36044L23.8957 10.305L23.6712 10.2094C23.2221 10.0273 22.6293 9.84535 21.8224 9.86458C20.8425 9.86458 20.403 10.2571 20.3928 10.6404C20.3928 11.062 20.9244 11.3398 21.7925 11.7519C23.2225 12.3937 23.8858 13.1792 23.8759 14.2043C23.8558 16.0725 22.1603 17.2797 19.5561 17.2797C18.4426 17.2701 17.3701 17.0493 16.788 16.8005L17.1353 14.779L17.4621 14.9229C18.269 15.2585 18.8 15.4019 19.7909 15.4019C20.5055 15.4019 21.2716 15.1238 21.2814 14.5205C21.2814 14.1277 20.955 13.8401 19.9947 13.3994C19.0553 12.9681 17.7991 12.2497 17.8195 10.9563C17.8301 9.20323 19.5561 7.97705 22.0071 7.97705C22.9672 7.97705 23.7437 8.17823 24.2332 8.36044ZM27.532 13.9553H29.595C29.4929 13.5051 29.0229 11.3495 29.0229 11.3495L28.8495 10.5736C28.7269 10.9088 28.5126 11.4549 28.5229 11.4357C28.5229 11.4357 27.7364 13.438 27.532 13.9553ZM30.5957 8.14029L32.598 17.1454H30.2999C30.2999 17.1454 30.0751 16.1107 30.0038 15.7946H26.8171C26.725 16.0339 26.2962 17.1454 26.2962 17.1454H23.692L27.3786 8.88746C27.6341 8.30301 28.0839 8.14029 28.6759 8.14029H30.5957Z" fill="#171E6C"/>
</g>
</g>
</g>
</g>
</g>
</svg>
