<svg width="89" height="89" viewBox="0 0 89 89" fill="none" xmlns="http://www.w3.org/2000/svg">
<g id="ant-design:play-circle-filled">
<g id="Group 35543">
<path id="Vector" d="M44.6799 6.10742C23.4086 6.10742 6.16113 23.3549 6.16113 44.6262C6.16113 65.8975 23.4086 83.145 44.6799 83.145C65.9512 83.145 83.1987 65.8975 83.1987 44.6262C83.1987 23.3549 65.9512 6.10742 44.6799 6.10742ZM57.0696 45.2195L38.2917 58.8816C38.1887 58.9556 38.0674 58.9997 37.9409 59.0092C37.8145 59.0187 37.6879 58.9932 37.5751 58.9355C37.4623 58.8777 37.3675 58.79 37.3013 58.6819C37.2351 58.5738 37.1999 58.4495 37.1997 58.3227V31.0157C37.1993 30.8886 37.2341 30.764 37.3002 30.6555C37.3662 30.547 37.4611 30.459 37.5742 30.4011C37.6872 30.3432 37.8141 30.3178 37.9408 30.3276C38.0674 30.3375 38.1889 30.3822 38.2917 30.4568L57.0696 44.1103C57.1583 44.1731 57.2306 44.2562 57.2806 44.3527C57.3305 44.4492 57.3566 44.5562 57.3566 44.6649C57.3566 44.7736 57.3305 44.8806 57.2806 44.9771C57.2306 45.0736 57.1583 45.1567 57.0696 45.2195Z" fill="#F7941D"/>
<path id="Polygon 1" d="M60.9247 44.1509C61.2755 44.3706 61.2755 44.8816 60.9247 45.1013L37.736 59.6206C37.3626 59.8544 36.8778 59.586 36.8778 59.1454L36.8778 30.1067C36.8778 29.6662 37.3626 29.3977 37.736 29.6315L60.9247 44.1509Z" fill="white"/>
</g>
</g>
</svg>
