<svg width="36" height="25" viewBox="0 0 36 25" fill="none" xmlns="http://www.w3.org/2000/svg">
<g id="Group">
<path id="Vector" d="M32.4501 0.682129H3.27005C1.65849 0.682129 0.352051 1.98856 0.352051 3.60013V21.1082C0.352051 22.7197 1.65849 24.0262 3.27005 24.0262H32.4501C34.0617 24.0262 35.3681 22.7197 35.3681 21.1082V3.60013C35.3681 1.98856 34.0617 0.682129 32.4501 0.682129Z" fill="#252525"/>
<path id="Vector_2" d="M13.483 19.6491C17.5119 19.6491 20.778 16.383 20.778 12.3541C20.778 8.32517 17.5119 5.05908 13.483 5.05908C9.45407 5.05908 6.18799 8.32517 6.18799 12.3541C6.18799 16.383 9.45407 19.6491 13.483 19.6491Z" fill="#EB001B"/>
<path id="Vector_3" d="M22.2371 19.6491C26.2661 19.6491 29.5322 16.383 29.5322 12.3541C29.5322 8.32517 26.2661 5.05908 22.2371 5.05908C18.2082 5.05908 14.9421 8.32517 14.9421 12.3541C14.9421 16.383 18.2082 19.6491 22.2371 19.6491Z" fill="#F79E1B"/>
<path id="Vector_4" fill-rule="evenodd" clip-rule="evenodd" d="M17.8601 6.51758C19.632 7.84849 20.7781 9.96746 20.7781 12.3541C20.7781 14.7408 19.632 16.8597 17.8601 18.1907C16.0883 16.8597 14.9421 14.7408 14.9421 12.3541C14.9421 9.96746 16.0883 7.84849 17.8601 6.51758Z" fill="#FF5F00"/>
</g>
</svg>
