<svg width="21" height="21" viewBox="0 0 21 21" fill="none" xmlns="http://www.w3.org/2000/svg">
<g id="dashicons:star-half">
<g id="Vector">
<path d="M10.9229 1.125L7.92281 7.1252L1.92261 7.87523L6.05275 12.4954L4.92271 19.1256L10.9229 16.1255L16.9231 19.1256L15.8031 12.4954L19.9232 7.87523L13.923 7.1252L10.9229 1.125ZM10.9229 3.36508L13.263 8.05524L17.9132 8.63526L14.733 12.1954L15.6031 17.3456L10.9229 15.0055V3.36508Z" fill="url(#paint0_linear_439_4654)"/>
<path d="M10.9229 1.125L7.92281 7.1252L1.92261 7.87523L6.05275 12.4954L4.92271 19.1256L10.9229 16.1255L16.9231 19.1256L15.8031 12.4954L19.9232 7.87523L13.923 7.1252L10.9229 1.125ZM10.9229 3.36508L13.263 8.05524L17.9132 8.63526L14.733 12.1954L15.6031 17.3456L10.9229 15.0055V3.36508Z" fill="url(#paint1_linear_439_4654)"/>
</g>
</g>
<defs>
<linearGradient id="paint0_linear_439_4654" x1="0.866449" y1="1.125" x2="21.0574" y2="19.9502" gradientUnits="userSpaceOnUse">
<stop stop-color="#F34508"/>
<stop offset="0.565238" stop-color="#FB8B00"/>
<stop offset="0.934865" stop-color="#FA7711"/>
</linearGradient>
<linearGradient id="paint1_linear_439_4654" x1="-7.23423" y1="-17.4082" x2="22.7387" y2="24.8353" gradientUnits="userSpaceOnUse">
<stop stop-color="#EE3524"/>
<stop offset="0.934865" stop-color="#F47B20"/>
</linearGradient>
</defs>
</svg>
