<svg width="36" height="25" viewBox="0 0 36 25" fill="none" xmlns="http://www.w3.org/2000/svg">
<g id="Group">
<path id="Vector" d="M32.3021 0.682129H3.1221C1.51054 0.682129 0.204102 1.98856 0.204102 3.60013V21.1082C0.204102 22.7197 1.51054 24.0262 3.1221 24.0262H32.3021C33.9137 24.0262 35.2201 22.7197 35.2201 21.1082V3.60013C35.2201 1.98856 33.9137 0.682129 32.3021 0.682129Z" fill="#016FD0"/>
<path id="Vector_2" fill-rule="evenodd" clip-rule="evenodd" d="M20.2859 20.2236V11.9053L35.0912 11.9186V14.2163L33.38 16.045L35.0912 17.8905V20.237H32.359L30.907 18.6348L29.4654 20.2431L20.2859 20.2236Z" fill="#FFFFFE"/>
<path id="Vector_3" fill-rule="evenodd" clip-rule="evenodd" d="M21.2747 19.3117V12.8208H26.7784V14.3161H23.0567V15.3311H26.6897V16.8015H23.0567V17.7985H26.7784V19.3117H21.2747Z" fill="#016FD0"/>
<path id="Vector_4" fill-rule="evenodd" clip-rule="evenodd" d="M26.7511 19.3116L29.7965 16.0624L26.751 12.8208H29.1082L30.9692 14.878L32.8354 12.8208H35.0912V12.8719L32.1107 16.0624L35.0912 19.2195V19.3116H32.8127L30.9187 17.2337L29.0442 19.3116H26.7511Z" fill="#016FD0"/>
<path id="Vector_5" fill-rule="evenodd" clip-rule="evenodd" d="M20.9764 4.52197H24.5452L25.7987 7.36827V4.52197H30.2047L30.9645 6.6544L31.7268 4.52197H35.0912V12.8403H17.311L20.9764 4.52197Z" fill="#FFFFFE"/>
<g id="Group_2">
<path id="Vector_6" fill-rule="evenodd" clip-rule="evenodd" d="M21.6521 5.42529L18.772 11.9108H20.7473L21.2907 10.6121H24.2349L24.7778 11.9108H26.8023L23.9342 5.42529H21.6521ZM21.8996 9.1566L22.7633 7.09201L23.6264 9.1566H21.8996Z" fill="#016FD0"/>
<path id="Vector_7" fill-rule="evenodd" clip-rule="evenodd" d="M26.7754 11.9102V5.4248L29.552 5.43435L30.9808 9.42141L32.4188 5.4248H35.0912V11.9102L33.3716 11.9254V7.47057L31.7483 11.9102H30.1787L28.5218 7.45535V11.9102H26.7754Z" fill="#016FD0"/>
</g>
</g>
</svg>
