<svg width="124" height="16" viewBox="0 0 124 16" fill="none" xmlns="http://www.w3.org/2000/svg">
<g id="Group 35709">
<g id="Group 35704">
<path id="Vector" d="M48.617 4.34026C48.1339 4.55355 47.6149 4.69766 47.0694 4.7628C47.6323 4.42719 48.0534 3.89898 48.2542 3.27672C47.7253 3.58973 47.1465 3.81005 46.5429 3.92811C46.137 3.49627 45.5993 3.21004 45.0134 3.11386C44.4275 3.01768 43.8261 3.11693 43.3026 3.39619C42.7791 3.67546 42.3627 4.11912 42.1182 4.65829C41.8737 5.19747 41.8147 5.80199 41.9504 6.378C40.8787 6.32439 39.8304 6.04686 38.8733 5.56343C37.9163 5.08 37.072 4.40146 36.3952 3.57186C36.1637 3.96961 36.0307 4.43077 36.0307 4.9219C36.0304 5.36403 36.1397 5.79939 36.3488 6.18935C36.5579 6.57931 36.8604 6.91181 37.2294 7.15736C36.8015 7.14379 36.3829 7.02857 36.0087 6.82129V6.85588C36.0086 7.47598 36.2239 8.07701 36.618 8.55697C37.0121 9.03693 37.5607 9.36626 38.1707 9.48908C37.7737 9.59614 37.3575 9.61191 36.9535 9.5352C37.1256 10.0688 37.4608 10.5353 37.9123 10.8696C38.3638 11.2039 38.9089 11.3892 39.4713 11.3994C38.5166 12.1462 37.3375 12.5512 36.1238 12.5494C35.9088 12.5495 35.694 12.537 35.4805 12.512C36.7125 13.3012 38.1466 13.7201 39.6113 13.7185C44.5695 13.7185 47.28 9.62685 47.28 6.07825C47.28 5.96296 47.2771 5.84652 47.2719 5.73123C47.7991 5.35134 48.2542 4.88091 48.6158 4.34199L48.617 4.34026Z" fill="#FB8B00"/>
</g>
<g id="Group 35705">
<path id="Vector_2" d="M80.0634 6.61131C79.0681 6.61131 78.2559 7.42058 78.2559 8.41225C78.2559 9.40392 79.0681 10.2132 80.0634 10.2132C81.0587 10.2132 81.8709 9.40392 81.8709 8.41225C81.8709 7.42058 81.0587 6.61131 80.0634 6.61131ZM85.4846 8.41225C85.4846 7.66647 85.4914 6.92745 85.4493 6.18302C85.4073 5.31836 85.2093 4.55096 84.5747 3.91867C83.9388 3.28503 83.1699 3.08913 82.3021 3.04725C81.5536 3.00537 80.8119 3.01212 80.0648 3.01212C79.3163 3.01212 78.5745 3.00537 77.8274 3.04725C76.9596 3.08913 76.1894 3.28638 75.5548 3.91867C74.9188 4.55231 74.7222 5.31836 74.6802 6.18302C74.6382 6.9288 74.6449 7.66782 74.6449 8.41225C74.6449 9.15668 74.6382 9.89705 74.6802 10.6415C74.7222 11.5061 74.9202 12.2735 75.5548 12.9058C76.1907 13.5395 76.9596 13.7354 77.8274 13.7773C78.5759 13.8191 79.3176 13.8124 80.0648 13.8124C80.8133 13.8124 81.555 13.8191 82.3021 13.7773C83.1699 13.7354 83.9401 13.5381 84.5747 12.9058C85.2107 12.2722 85.4073 11.5061 85.4493 10.6415C85.4927 9.89705 85.4846 9.15803 85.4846 8.41225ZM80.0634 11.1832C78.5244 11.1832 77.2823 9.94569 77.2823 8.41225C77.2823 6.87881 78.5244 5.64126 80.0634 5.64126C81.6024 5.64126 82.8445 6.87881 82.8445 8.41225C82.8445 9.94569 81.6024 11.1832 80.0634 11.1832ZM82.9584 6.17492C82.5991 6.17492 82.3089 5.88579 82.3089 5.52777C82.3089 5.16974 82.5991 4.88062 82.9584 4.88062C83.3177 4.88062 83.6079 5.16974 83.6079 5.52777C83.608 5.61278 83.5913 5.69698 83.5587 5.77555C83.5261 5.85411 83.4782 5.9255 83.4179 5.98561C83.3576 6.04573 83.2859 6.09339 83.2071 6.12587C83.1282 6.15836 83.0437 6.17502 82.9584 6.17492Z" fill="#FB8B00"/>
</g>
<g id="Group 35707">
<g id="Group 35706">
<path id="Vector_3" d="M114.006 4.18781C114.645 4.18781 115.163 3.67182 115.163 3.03531C115.163 2.3988 114.645 1.88281 114.006 1.88281C113.367 1.88281 112.85 2.3988 112.85 3.03531C112.85 3.67182 113.367 4.18781 114.006 4.18781Z" fill="#FB8B00"/>
<path id="Vector_4" d="M115.163 5.91797H112.85V13.1211H115.163V5.91797Z" fill="#FB8B00"/>
<path id="Vector_5" d="M117.477 8.6532V13.1191H119.501V9.08539C119.501 8.36508 119.935 7.78883 120.658 7.78883C121.381 7.78883 121.814 8.50914 121.814 9.08539V13.1191H123.839V8.6532C123.839 7.78883 122.827 5.91602 120.658 5.91602C118.489 5.91602 117.477 7.78883 117.477 8.6532Z" fill="#FB8B00"/>
</g>
</g>
<g id="Group 35708">
<path id="Vector_6" d="M1.8721 15.9056V8.87295H0V6.34087H1.8721V4.17815C1.8721 2.47866 2.97796 0.917969 5.52609 0.917969C6.55779 0.917969 7.32068 1.01621 7.32068 1.01621L7.26057 3.38075C7.26057 3.38075 6.48254 3.37322 5.63352 3.37322C4.71463 3.37322 4.56741 3.79385 4.56741 4.49199V6.34087H7.33362L7.21325 8.87295H4.56741V15.9056H1.8721Z" fill="#FB8B00"/>
</g>
</g>
</svg>
