<svg width="24" height="25" viewBox="0 0 24 25" fill="none" xmlns="http://www.w3.org/2000/svg">
<g id="material-symbols:google-guarantee" clip-path="url(#clip0_429_1938)">
<path id="Vector" d="M13.0344 24.897C9.89479 24.897 7.27083 23.7672 5.1625 21.5075C3.05417 19.2479 2 16.5888 2 13.5304V3.63592C2 2.88271 2.2695 2.23769 2.8085 1.70085C3.34658 1.16493 3.99375 0.896973 4.75 0.896973H21.25C22.0063 0.896973 22.6539 1.16493 23.1929 1.70085C23.731 2.23769 24 2.88271 24 3.63592V6.03249C24 6.39769 23.9312 6.74553 23.7938 7.07603C23.6562 7.40744 23.4615 7.69868 23.2094 7.94975L15.2687 15.8585C14.7417 16.3834 14.0945 16.6459 13.3272 16.6459C12.5591 16.6459 11.9115 16.3834 11.3844 15.8585L7.5 11.9897L9.425 10.0382L13.3438 13.907L21.25 6.03249V3.63592H4.75V13.6331C4.75 15.9612 5.54062 17.9583 7.12187 19.6245C8.70312 21.2907 10.674 22.1238 13.0344 22.1238C15.326 22.1238 17.268 21.3249 18.8602 19.7272C20.4534 18.1295 21.25 16.1894 21.25 13.907H24C24 16.9654 22.9403 19.562 20.821 21.6965C18.7008 23.8302 16.1052 24.897 13.0344 24.897Z" fill="white"/>
</g>
<defs>
<clipPath id="clip0_429_1938">
<rect width="24" height="24" fill="white" transform="translate(0 0.896973)"/>
</clipPath>
</defs>
</svg>
